{"accessors" : [{"bufferView" : 0, "byteOffset" : 0, "componentType" : 5123, "count" : 6603, "type" : "SCALAR", "max" : [1930], "min" : [0]}, {"bufferView" : 1, "byteOffset" : 0, "componentType" : 5126, "count" : 1931, "type" : "VEC3", "max" : [0.16495920717716217, 0.20123082399368286, 1.0118613243103027], "min" : [-0.1679995059967041, -0.15883103013038635, 0.4252083897590637], "name" : "POSITION"}, {"bufferView" : 1, "byteOffset" : 12, "componentType" : 5126, "count" : 1931, "type" : "VEC3", "max" : [0.9994927644729614, 0.9975486993789673, 0.9977798461914062], "min" : [-0.9995032548904419, -0.9980480670928955, -0.9993797540664673], "name" : "NORMAL"}, {"bufferView" : 1, "byteOffset" : 24, "componentType" : 5126, "count" : 1931, "type" : "VEC2", "max" : [0.9930368661880493, 0.9924996495246887], "min" : [0.014786019921302795, 0.012803733348846436], "name" : "TEXCOORD_0"}, {"bufferView" : 0, "byteOffset" : 13208, "componentType" : 5123, "count" : 366, "type" : "SCALAR", "max" : [365], "min" : [0]}, {"bufferView" : 2, "byteOffset" : 0, "componentType" : 5126, "count" : 366, "type" : "VEC3", "max" : [0.10250288248062134, -0.0446818470954895, 0.786118745803833], "min" : [-0.10250350832939148, -0.11495307087898254, 0.6495658755302429], "name" : "POSITION"}, {"bufferView" : 2, "byteOffset" : 12, "componentType" : 5126, "count" : 366, "type" : "VEC3", "max" : [0.5875923037528992, -0.5797740817070007, 0.21360905468463898], "min" : [-0.6297708749771118, -0.9980480670928955, -0.7528864145278931], "name" : "NORMAL"}, {"bufferView" : 2, "byteOffset" : 24, "componentType" : 5126, "count" : 366, "type" : "VEC2", "max" : [0.9656855463981628, 0.9574110507965088], "min" : [0.008885234594345093, 0.033290863037109375], "name" : "TEXCOORD_0"}, {"bufferView" : 0, "byteOffset" : 13940, "componentType" : 5123, "count" : 15918, "type" : "SCALAR", "max" : [15917], "min" : [0]}, {"bufferView" : 3, "byteOffset" : 0, "componentType" : 5126, "count" : 15918, "type" : "VEC3", "max" : [0.33414900302886963, 0.36162757873535156, 0.852307915687561], "min" : [-0.3341495990753174, -0.12984220683574677, -0.0009861886501312256], "name" : "POSITION"}, {"bufferView" : 3, "byteOffset" : 12, "componentType" : 5126, "count" : 15918, "type" : "VEC3", "max" : [0.9999791383743286, 0.9995032548904419, 0.9997437596321106], "min" : [-0.9995032548904419, -1.0000026226043701, -1.0000038146972656], "name" : "NORMAL"}, {"bufferView" : 3, "byteOffset" : 24, "componentType" : 5126, "count" : 15918, "type" : "VEC2", "max" : [0.9895445704460144, 0.9934630393981934], "min" : [0.010285166092216969, 0.012502670288085938], "name" : "TEXCOORD_0"}, {"bufferView" : 0, "byteOffset" : 45776, "componentType" : 5123, "count" : 2106, "type" : "SCALAR", "max" : [2105], "min" : [0]}, {"bufferView" : 4, "byteOffset" : 0, "componentType" : 5126, "count" : 2106, "type" : "VEC3", "max" : [0.13624252378940582, 0.033229678869247437, 0.9333888292312622], "min" : [-0.1362418532371521, -0.11495307087898254, 0.6224281191825867], "name" : "POSITION"}, {"bufferView" : 4, "byteOffset" : 12, "componentType" : 5126, "count" : 2106, "type" : "VEC3", "max" : [0.9785025119781494, 0.9975486993789673, 0.9075154066085815], "min" : [-0.9780031442642212, -1.0000026226043701, -0.9955245852470398], "name" : "NORMAL"}, {"bufferView" : 4, "byteOffset" : 24, "componentType" : 5126, "count" : 2106, "type" : "VEC2", "max" : [0.9848028421401978, 0.982624888420105], "min" : [0.02369740977883339, 0.016506731510162354], "name" : "TEXCOORD_0"}, {"bufferView" : 0, "byteOffset" : 49988, "componentType" : 5123, "count" : 84, "type" : "SCALAR", "max" : [83], "min" : [0]}, {"bufferView" : 5, "byteOffset" : 0, "componentType" : 5126, "count" : 84, "type" : "VEC3", "max" : [0.10923823714256287, -0.06989029049873352, 0.81898033618927], "min" : [-0.10923886299133301, -0.1080855131149292, 0.8035969734191895], "name" : "POSITION"}, {"bufferView" : 5, "byteOffset" : 12, "componentType" : 5126, "count" : 84, "type" : "VEC3", "max" : [0.546981930732727, -0.6178990006446838, -0.31047090888023376], "min" : [-0.5460473299026489, -0.9140024185180664, -0.5648189187049866], "name" : "NORMAL"}, {"bufferView" : 5, "byteOffset" : 24, "componentType" : 5126, "count" : 84, "type" : "VEC2", "max" : [0.5790702104568481, 0.49262499809265137], "min" : [0.4110182821750641, 0.4560762643814087], "name" : "TEXCOORD_0"}], "asset" : {"generator" : "Aspose.3D 24.4.1", "version" : "2.0"}, "buffers" : [{"uri" : "data:application/octet-stream;base64,", "byteLength" : 703140}], "bufferViews" : [{"buffer" : 0, "byteOffset" : 0, "byteLength" : 50156, "target" : 34963}, {"buffer" : 0, "byteOffset" : 50160, "byteLength" : 61792, "byteStride" : 32, "target" : 34962}, {"buffer" : 0, "byteOffset" : 111956, "byteLength" : 11712, "byteStride" : 32, "target" : 34962}, {"buffer" : 0, "byteOffset" : 123672, "byteLength" : 509376, "byteStride" : 32, "target" : 34962}, {"buffer" : 0, "byteOffset" : 633052, "byteLength" : 67392, "byteStride" : 32, "target" : 34962}, {"buffer" : 0, "byteOffset" : 700448, "byteLength" : 2688, "byteStride" : 32, "target" : 34962}], "images" : [{"uri" : "data:image/png;base64,"}, {"uri" : "data:image/png;base64,"}, {"uri" : "data:image/png;base64,"}, {"uri" : "data:image/png;base64,"}], "materials" : [{"name" : "lambert2", "pbrMetallicRoughness" : {"baseColorFactor" : [1, 1, 1, 1], "baseColorTexture" : {"index" : 0, "texCoord" : 0}, "metallicFactor" : 1, "roughnessFactor" : 1}, "emissiveFactor" : [0, 0, 0], "alphaMode" : "OPAQUE", "doubleSided" : false}, {"name" : "lambert5", "pbrMetallicRoughness" : {"baseColorFactor" : [1, 1, 1, 1], "baseColorTexture" : {"index" : 1, "texCoord" : 0}, "metallicFactor" : 1, "roughnessFactor" : 1}, "emissiveFactor" : [0, 0, 0], "alphaMode" : "OPAQUE", "doubleSided" : false}, {"name" : "lambert3", "pbrMetallicRoughness" : {"baseColorFactor" : [1, 1, 1, 1], "baseColorTexture" : {"index" : 2, "texCoord" : 0}, "metallicFactor" : 1, "roughnessFactor" : 1}, "emissiveFactor" : [0, 0, 0], "alphaMode" : "OPAQUE", "doubleSided" : false}, {"name" : "lambert4", "pbrMetallicRoughness" : {"baseColorFactor" : [1, 1, 1, 1], "baseColorTexture" : {"index" : 3, "texCoord" : 0}, "metallicFactor" : 1, "roughnessFactor" : 1}, "emissiveFactor" : [0, 0, 0], "alphaMode" : "OPAQUE", "doubleSided" : false}, {"name" : "lambert2", "pbrMetallicRoughness" : {"baseColorFactor" : [1, 1, 1, 1], "baseColorTexture" : {"index" : 0, "texCoord" : 0}, "metallicFactor" : 1, "roughnessFactor" : 1}, "emissiveFactor" : [0, 0, 0], "alphaMode" : "OPAQUE", "doubleSided" : false}], "meshes" : [{"primitives" : [{"attributes" : {"POSITION" : 1, "NORMAL" : 2, "TEXCOORD_0" : 3}, "indices" : 0, "material" : 0, "mode" : 4}], "name" : ""}, {"primitives" : [{"attributes" : {"POSITION" : 5, "NORMAL" : 6, "TEXCOORD_0" : 7}, "indices" : 4, "material" : 1, "mode" : 4}], "name" : ""}, {"primitives" : [{"attributes" : {"POSITION" : 9, "NORMAL" : 10, "TEXCOORD_0" : 11}, "indices" : 8, "material" : 2, "mode" : 4}], "name" : ""}, {"primitives" : [{"attributes" : {"POSITION" : 13, "NORMAL" : 14, "TEXCOORD_0" : 15}, "indices" : 12, "material" : 3, "mode" : 4}], "name" : ""}, {"primitives" : [{"attributes" : {"POSITION" : 17, "NORMAL" : 18, "TEXCOORD_0" : 19}, "indices" : 16, "material" : 4, "mode" : 4}], "name" : ""}], "nodes" : [{"mesh" : 0, "name" : "OL_Aru_Original_Body_OL_Aru_Original_Body_0"}, {"mesh" : 1, "name" : "OL_Aru_Original_Body_OL_Aru_Original_Body_3"}, {"mesh" : 2, "name" : "OL_Aru_Original_Body_OL_Aru_Original_Body_1"}, {"mesh" : 3, "name" : "OL_Aru_Original_Body_OL_Aru_Original_Body_4"}, {"mesh" : 4, "name" : "OL_Aru_Original_Body_OL_Aru_Original_Body_2"}, {"children" : [0, 1, 2, 3, 4], "matrix" : [1, 0, 0, 0, 0, 6.123233995736766E-17, -1, 0, 0, 1, 6.123233995736766E-17, 0, 0, 0, 0, 1], "name" : "group1"}], "samplers" : [{"magFilter" : 9729, "minFilter" : 9729, "wrapS" : 10497, "wrapT" : 10497}, {"magFilter" : 9729, "minFilter" : 9729, "wrapS" : 10497, "wrapT" : 10497}, {"magFilter" : 9729, "minFilter" : 9729, "wrapS" : 10497, "wrapT" : 10497}, {"magFilter" : 9729, "minFilter" : 9729, "wrapS" : 10497, "wrapT" : 10497}], "scene" : 0, "scenes" : [{"nodes" : [5]}], "textures" : [{"sampler" : 0, "source" : 0, "name" : "file1"}, {"sampler" : 1, "source" : 1, "name" : "file4"}, {"sampler" : 2, "source" : 2, "name" : "file2"}, {"sampler" : 3, "source" : 3, "name" : "file3"}]}