{"accessors" : [{"bufferView" : 0, "byteOffset" : 0, "componentType" : 5123, "count" : 9039, "type" : "SCALAR", "max" : [9038], "min" : [0]}, {"bufferView" : 1, "byteOffset" : 0, "componentType" : 5126, "count" : 9039, "type" : "VEC3", "max" : [0.13379913568496704, 0.03767406940460205, 0.5170735120773315], "min" : [-0.08281126618385315, -0.031399935483932495, -0.294840931892395], "name" : "POSITION"}, {"bufferView" : 1, "byteOffset" : 12, "componentType" : 5126, "count" : 9039, "type" : "VEC3", "max" : [1.0000039339065552, 1.0000039339065552, 1.000003457069397], "min" : [-1.0000039339065552, -1.0000039339065552, -1.000003457069397], "name" : "NORMAL"}, {"bufferView" : 1, "byteOffset" : 24, "componentType" : 5126, "count" : 9039, "type" : "VEC2", "max" : [0.979891300201416, 0.991085946559906], "min" : [0.02755279466509819, 0.025649964809417725], "name" : "TEXCOORD_0"}], "asset" : {"generator" : "Aspose.3D 24.4.1", "version" : "2.0"}, "buffers" : [{"uri" : "data:application/octet-stream;base64,", "byteLength" : 307336}], "bufferViews" : [{"buffer" : 0, "byteOffset" : 0, "byteLength" : 18080, "target" : 34963}, {"buffer" : 0, "byteOffset" : 18084, "byteLength" : 289248, "byteStride" : 32, "target" : 34962}], "images" : [{"uri" : "data:image/png;base64,"}], "materials" : [{"name" : "lambert2", "pbrMetallicRoughness" : {"baseColorFactor" : [1, 1, 1, 1], "baseColorTexture" : {"index" : 0, "texCoord" : 0}, "metallicFactor" : 1, "roughnessFactor" : 1}, "emissiveFactor" : [0, 0, 0], "alphaMode" : "OPAQUE", "doubleSided" : false}], "meshes" : [{"primitives" : [{"attributes" : {"POSITION" : 1, "NORMAL" : 2, "TEXCOORD_0" : 3}, "indices" : 0, "material" : 0, "mode" : 4}], "name" : ""}], "nodes" : [{"matrix" : [6.123233995736766E-17, -1, 0, 0, 1, 6.123233995736766E-17, 0, 0, 0, 0, 1, 0, 0, 0, 0, 1], "mesh" : 0, "name" : "OL_Aru_Original_Weapon_OL_Aru_Original_Weapon_0"}], "samplers" : [{"magFilter" : 9729, "minFilter" : 9729, "wrapS" : 10497, "wrapT" : 10497}], "scene" : 0, "scenes" : [{"nodes" : [0]}], "textures" : [{"sampler" : 0, "source" : 0, "name" : "file1"}]}