{"accessors" : [{"bufferView" : 0, "byteOffset" : 0, "componentType" : 5123, "count" : 588, "type" : "SCALAR", "max" : [587], "min" : [0]}, {"bufferView" : 1, "byteOffset" : 0, "componentType" : 5126, "count" : 588, "type" : "VEC3", "max" : [0.10930970311164856, -0.04950585961341858, 0.7922184467315674], "min" : [-0.10931062698364258, -0.11701537668704987, 0.6495649218559265], "name" : "POSITION"}, {"bufferView" : 1, "byteOffset" : 12, "componentType" : 5126, "count" : 588, "type" : "VEC3", "max" : [0.7966448664665222, 0.9902237057685852, 0.8974452018737793], "min" : [-0.7966789603233337, -0.9940997362136841, -0.7365694642066956], "name" : "NORMAL"}, {"bufferView" : 1, "byteOffset" : 24, "componentType" : 5126, "count" : 588, "type" : "VEC2", "max" : [0.9862556457519531, 0.984954833984375], "min" : [0.008647918701171875, 0.008941650390625], "name" : "TEXCOORD_0"}, {"bufferView" : 0, "byteOffset" : 1176, "componentType" : 5123, "count" : 11772, "type" : "SCALAR", "max" : [11771], "min" : [0]}, {"bufferView" : 2, "byteOffset" : 0, "componentType" : 5126, "count" : 11772, "type" : "VEC3", "max" : [0.33414900302886963, 0.21879374980926514, 0.7040705680847168], "min" : [-0.334148645401001, -0.14723651111125946, 4.76837158203125E-07], "name" : "POSITION"}, {"bufferView" : 2, "byteOffset" : 12, "componentType" : 5126, "count" : 11772, "type" : "VEC3", "max" : [0.999964714050293, 0.9999988079071045, 0.9999654293060303], "min" : [-0.9999654293060303, -0.999964714050293, -1.000003457069397], "name" : "NORMAL"}, {"bufferView" : 2, "byteOffset" : 24, "componentType" : 5126, "count" : 11772, "type" : "VEC2", "max" : [0.9916725158691406, 0.9899673461914062], "min" : [0.010478973388671875, 0.007251739501953125], "name" : "TEXCOORD_0"}, {"bufferView" : 0, "byteOffset" : 24720, "componentType" : 5123, "count" : 1572, "type" : "SCALAR", "max" : [395], "min" : [0]}, {"bufferView" : 3, "byteOffset" : 0, "componentType" : 5126, "count" : 396, "type" : "VEC3", "max" : [0.13476423919200897, 0.031166523694992065, 0.91196608543396], "min" : [-0.13476517796516418, -0.11701537668704987, 0.6495661735534668], "name" : "POSITION"}, {"bufferView" : 3, "byteOffset" : 12, "componentType" : 5126, "count" : 396, "type" : "VEC3", "max" : [0.9745497107505798, 0.9472137689590454, 0.7126638293266296], "min" : [-0.9745837450027466, -0.999964714050293, -0.9954970479011536], "name" : "NORMAL"}, {"bufferView" : 3, "byteOffset" : 24, "componentType" : 5126, "count" : 396, "type" : "VEC2", "max" : [0.989044189453125, 0.9916000366210938], "min" : [0.008968353271484375, 0.012302398681640625], "name" : "TEXCOORD_0"}, {"bufferView" : 0, "byteOffset" : 27864, "componentType" : 5123, "count" : 60, "type" : "SCALAR", "max" : [59], "min" : [0]}, {"bufferView" : 4, "byteOffset" : 0, "componentType" : 5126, "count" : 60, "type" : "VEC3", "max" : [0.07601594924926758, -0.09635542333126068, 0.8177835941314697], "min" : [-0.07601562142372131, -0.11138524115085602, 0.80577552318573], "name" : "POSITION"}, {"bufferView" : 4, "byteOffset" : 12, "componentType" : 5126, "count" : 60, "type" : "VEC3", "max" : [0.31962522864341736, -0.9432697892189026, -0.06615789234638214], "min" : [-0.3196593225002289, -0.9843247532844543, -0.20608581602573395], "name" : "NORMAL"}, {"bufferView" : 4, "byteOffset" : 24, "componentType" : 5126, "count" : 60, "type" : "VEC2", "max" : [0.6405214071273804, 0.18024307489395142], "min" : [0.35559406876564026, 0.1354241967201233], "name" : "TEXCOORD_0"}, {"bufferView" : 0, "byteOffset" : 27984, "componentType" : 5123, "count" : 7710, "type" : "SCALAR", "max" : [7709], "min" : [0]}, {"bufferView" : 5, "byteOffset" : 0, "componentType" : 5126, "count" : 7710, "type" : "VEC3", "max" : [0.31232792139053345, 0.2763567566871643, 0.9994003772735596], "min" : [-0.3123275637626648, -0.15795502066612244, 0.34316807985305786], "name" : "POSITION"}, {"bufferView" : 5, "byteOffset" : 12, "componentType" : 5126, "count" : 7710, "type" : "VEC3", "max" : [0.999602198600769, 0.9980437755584717, 0.9999805688858032], "min" : [-0.9999808073043823, -0.9960547089576721, -0.9866403937339783], "name" : "NORMAL"}, {"bufferView" : 5, "byteOffset" : 24, "componentType" : 5126, "count" : 7710, "type" : "VEC2", "max" : [0.9947700500488281, 0.993804931640625], "min" : [0.005954742431640625, 0.0082550048828125], "name" : "TEXCOORD_0"}], "asset" : {"generator" : "Aspose.3D 24.4.1", "version" : "2.0"}, "buffers" : [{"uri" : "data:application/octet-stream;base64,", "byteLength" : 700260}], "bufferViews" : [{"buffer" : 0, "byteOffset" : 0, "byteLength" : 43404, "target" : 34963}, {"buffer" : 0, "byteOffset" : 43408, "byteLength" : 18816, "byteStride" : 32, "target" : 34962}, {"buffer" : 0, "byteOffset" : 62228, "byteLength" : 376704, "byteStride" : 32, "target" : 34962}, {"buffer" : 0, "byteOffset" : 438936, "byteLength" : 12672, "byteStride" : 32, "target" : 34962}, {"buffer" : 0, "byteOffset" : 451612, "byteLength" : 1920, "byteStride" : 32, "target" : 34962}, {"buffer" : 0, "byteOffset" : 453536, "byteLength" : 246720, "byteStride" : 32, "target" : 34962}], "images" : [{"uri" : "data:image/png;base64,"}, {"uri" : "data:image/png;base64,"}, {"uri" : "data:image/png;base64,"}, {"uri" : "data:image/png;base64,"}], "materials" : [{"name" : "lambert5", "pbrMetallicRoughness" : {"baseColorFactor" : [1, 1, 1, 1], "baseColorTexture" : {"index" : 0, "texCoord" : 0}, "metallicFactor" : 1, "roughnessFactor" : 1}, "emissiveFactor" : [0, 0, 0], "alphaMode" : "OPAQUE", "doubleSided" : false}, {"name" : "lambert3", "pbrMetallicRoughness" : {"baseColorFactor" : [1, 1, 1, 1], "baseColorTexture" : {"index" : 1, "texCoord" : 0}, "metallicFactor" : 1, "roughnessFactor" : 1}, "emissiveFactor" : [0, 0, 0], "alphaMode" : "OPAQUE", "doubleSided" : false}, {"name" : "lambert4", "pbrMetallicRoughness" : {"baseColorFactor" : [1, 1, 1, 1], "baseColorTexture" : {"index" : 2, "texCoord" : 0}, "metallicFactor" : 1, "roughnessFactor" : 1}, "emissiveFactor" : [0, 0, 0], "alphaMode" : "OPAQUE", "doubleSided" : false}, {"name" : "lambert2", "pbrMetallicRoughness" : {"baseColorFactor" : [1, 1, 1, 1], "baseColorTexture" : {"index" : 3, "texCoord" : 0}, "metallicFactor" : 1, "roughnessFactor" : 1}, "emissiveFactor" : [0, 0, 0], "alphaMode" : "OPAQUE", "doubleSided" : false}, {"name" : "lambert2", "pbrMetallicRoughness" : {"baseColorFactor" : [1, 1, 1, 1], "baseColorTexture" : {"index" : 3, "texCoord" : 0}, "metallicFactor" : 1, "roughnessFactor" : 1}, "emissiveFactor" : [0, 0, 0], "alphaMode" : "OPAQUE", "doubleSided" : false}], "meshes" : [{"primitives" : [{"attributes" : {"POSITION" : 1, "NORMAL" : 2, "TEXCOORD_0" : 3}, "indices" : 0, "material" : 0, "mode" : 4}], "name" : ""}, {"primitives" : [{"attributes" : {"POSITION" : 5, "NORMAL" : 6, "TEXCOORD_0" : 7}, "indices" : 4, "material" : 1, "mode" : 4}], "name" : ""}, {"primitives" : [{"attributes" : {"POSITION" : 9, "NORMAL" : 10, "TEXCOORD_0" : 11}, "indices" : 8, "material" : 2, "mode" : 4}], "name" : ""}, {"primitives" : [{"attributes" : {"POSITION" : 13, "NORMAL" : 14, "TEXCOORD_0" : 15}, "indices" : 12, "material" : 3, "mode" : 4}], "name" : ""}, {"primitives" : [{"attributes" : {"POSITION" : 17, "NORMAL" : 18, "TEXCOORD_0" : 19}, "indices" : 16, "material" : 4, "mode" : 4}], "name" : ""}], "nodes" : [{"mesh" : 0, "name" : "OL_Hihumi_Original_Body_OL_Hihumi_Original_Body_2"}, {"mesh" : 1, "name" : "OL_Hihumi_Original_Body_OL_Hihumi_Original_Body_4"}, {"mesh" : 2, "name" : "OL_Hihumi_Original_Body_OL_Hihumi_Original_Body_0"}, {"mesh" : 3, "name" : "OL_Hihumi_Original_Body_OL_Hihumi_Original_Body_1"}, {"mesh" : 4, "name" : "OL_Hihumi_Original_Body_OL_Hihumi_Original_Body_3"}, {"children" : [0, 1, 2, 3, 4], "matrix" : [1, 0, 0, 0, 0, 6.123233995736766E-17, -1, 0, 0, 1, 6.123233995736766E-17, 0, 0, 0, 0, 1], "name" : "group1"}], "samplers" : [{"magFilter" : 9729, "minFilter" : 9729, "wrapS" : 10497, "wrapT" : 10497}, {"magFilter" : 9729, "minFilter" : 9729, "wrapS" : 10497, "wrapT" : 10497}, {"magFilter" : 9729, "minFilter" : 9729, "wrapS" : 10497, "wrapT" : 10497}, {"magFilter" : 9729, "minFilter" : 9729, "wrapS" : 10497, "wrapT" : 10497}], "scene" : 0, "scenes" : [{"nodes" : [5]}], "textures" : [{"sampler" : 0, "source" : 0, "name" : "file4"}, {"sampler" : 1, "source" : 1, "name" : "file2"}, {"sampler" : 2, "source" : 2, "name" : "file3"}, {"sampler" : 3, "source" : 3, "name" : "file1"}]}