{"accessors" : [{"bufferView" : 0, "byteOffset" : 0, "componentType" : 5123, "count" : 7080, "type" : "SCALAR", "max" : [7079], "min" : [0]}, {"bufferView" : 1, "byteOffset" : 0, "componentType" : 5126, "count" : 7080, "type" : "VEC3", "max" : [0.19333870708942413, 0.024624228477478027, 0.30062174797058105], "min" : [-0.08693453669548035, -0.028555244207382202, -0.3484002351760864], "name" : "POSITION"}, {"bufferView" : 1, "byteOffset" : 12, "componentType" : 5126, "count" : 7080, "type" : "VEC3", "max" : [1.0000039339065552, 1.0000039339065552, 1.000003457069397], "min" : [-1.0000039339065552, -1.0000039339065552, -1.000003457069397], "name" : "NORMAL"}, {"bufferView" : 1, "byteOffset" : 24, "componentType" : 5126, "count" : 7080, "type" : "VEC2", "max" : [0.9938970804214478, 0.9955000281333923], "min" : [0.008794560097157955, 0.004500031471252441], "name" : "TEXCOORD_0"}], "asset" : {"generator" : "Aspose.3D 24.4.1", "version" : "2.0"}, "buffers" : [{"uri" : "data:application/octet-stream;base64,", "byteLength" : 240728}], "bufferViews" : [{"buffer" : 0, "byteOffset" : 0, "byteLength" : 14160, "target" : 34963}, {"buffer" : 0, "byteOffset" : 14164, "byteLength" : 226560, "byteStride" : 32, "target" : 34962}], "images" : [{"uri" : "data:image/png;base64,"}], "materials" : [{"name" : "lambert2", "pbrMetallicRoughness" : {"baseColorFactor" : [1, 1, 1, 1], "baseColorTexture" : {"index" : 0, "texCoord" : 0}, "metallicFactor" : 1, "roughnessFactor" : 1}, "emissiveFactor" : [0, 0, 0], "alphaMode" : "OPAQUE", "doubleSided" : false}], "meshes" : [{"primitives" : [{"attributes" : {"POSITION" : 1, "NORMAL" : 2, "TEXCOORD_0" : 3}, "indices" : 0, "material" : 0, "mode" : 4}], "name" : ""}], "nodes" : [{"matrix" : [6.123233995736766E-17, -1, 0, 0, 1, 6.123233995736766E-17, 0, 0, 0, 0, 1, 0, 0, 0, 0, 1], "mesh" : 0, "name" : "OL_Hihumi_Original_Weapon_OL_Hihumi_Original_Weapon_0"}], "samplers" : [{"magFilter" : 9729, "minFilter" : 9729, "wrapS" : 10497, "wrapT" : 10497}], "scene" : 0, "scenes" : [{"nodes" : [0]}], "textures" : [{"sampler" : 0, "source" : 0, "name" : "file1"}]}