{"accessors" : [{"bufferView" : 0, "byteOffset" : 0, "componentType" : 5123, "count" : 1830, "type" : "SCALAR", "max" : [473], "min" : [0]}, {"bufferView" : 1, "byteOffset" : 0, "componentType" : 5126, "count" : 474, "type" : "VEC3", "max" : [0.13476496934890747, 0.031166762113571167, 0.9119658470153809], "min" : [-0.134764164686203, -0.11701464653015137, 0.6361449956893921], "name" : "POSITION"}, {"bufferView" : 1, "byteOffset" : 12, "componentType" : 5126, "count" : 474, "type" : "VEC3", "max" : [0.9725964069366455, 0.9861915707588196, 0.7050572633743286], "min" : [-0.9725074768066406, -0.999964714050293, -0.9955034852027893], "name" : "NORMAL"}, {"bufferView" : 1, "byteOffset" : 24, "componentType" : 5126, "count" : 474, "type" : "VEC2", "max" : [0.9917733669281006, 0.9926745295524597], "min" : [0.010603195056319237, 0.008727431297302246], "name" : "TEXCOORD_0"}, {"bufferView" : 0, "byteOffset" : 3660, "componentType" : 5123, "count" : 60, "type" : "SCALAR", "max" : [59], "min" : [0]}, {"bufferView" : 2, "byteOffset" : 0, "componentType" : 5126, "count" : 60, "type" : "VEC3", "max" : [0.08871504664421082, -0.0931788980960846, 0.8101028203964233], "min" : [-0.0887155532836914, -0.10708416998386383, 0.8030029535293579], "name" : "POSITION"}, {"bufferView" : 2, "byteOffset" : 12, "componentType" : 5126, "count" : 60, "type" : "VEC3", "max" : [0.28056955337524414, -0.9471830129623413, -0.03798345848917961], "min" : [-0.2804805636405945, -0.9794039726257324, -0.19943208992481232], "name" : "NORMAL"}, {"bufferView" : 2, "byteOffset" : 24, "componentType" : 5126, "count" : 60, "type" : "VEC2", "max" : [0.533593475818634, 0.795344889163971], "min" : [0.4931989014148712, 0.4234170913696289], "name" : "TEXCOORD_0"}, {"bufferView" : 0, "byteOffset" : 3780, "componentType" : 5123, "count" : 582, "type" : "SCALAR", "max" : [581], "min" : [0]}, {"bufferView" : 3, "byteOffset" : 0, "componentType" : 5126, "count" : 582, "type" : "VEC3", "max" : [0.10620333254337311, -0.049990713596343994, 0.7813103199005127], "min" : [-0.1062038242816925, -0.11701464653015137, 0.6495651006698608], "name" : "POSITION"}, {"bufferView" : 3, "byteOffset" : 12, "componentType" : 5126, "count" : 582, "type" : "VEC3", "max" : [0.9256793260574341, 0.9119061827659607, 0.890008270740509], "min" : [-0.9255903959274292, -0.9997047781944275, -0.7365692853927612], "name" : "NORMAL"}, {"bufferView" : 3, "byteOffset" : 24, "componentType" : 5126, "count" : 582, "type" : "VEC2", "max" : [0.9870995879173279, 0.9574089050292969], "min" : [0.008645680733025074, 0.013628780841827393], "name" : "TEXCOORD_0"}, {"bufferView" : 0, "byteOffset" : 4944, "componentType" : 5123, "count" : 6249, "type" : "SCALAR", "max" : [6248], "min" : [0]}, {"bufferView" : 4, "byteOffset" : 0, "componentType" : 5126, "count" : 6249, "type" : "VEC3", "max" : [0.19194144010543823, 0.22098875045776367, 1.0261189937591553], "min" : [-0.20531535148620605, -0.15305106341838837, 0.5866003036499023], "name" : "POSITION"}, {"bufferView" : 4, "byteOffset" : 12, "componentType" : 5126, "count" : 6249, "type" : "VEC3", "max" : [0.9997069239616394, 0.9997507333755493, 0.9987512230873108], "min" : [-0.9971756339073181, -0.999964714050293, -0.9982326030731201], "name" : "NORMAL"}, {"bufferView" : 4, "byteOffset" : 24, "componentType" : 5126, "count" : 6249, "type" : "VEC2", "max" : [0.999224066734314, 0.9916274547576904], "min" : [0.0047610001638531685, 0.004433035850524902], "name" : "TEXCOORD_0"}, {"bufferView" : 0, "byteOffset" : 17444, "componentType" : 5123, "count" : 8787, "type" : "SCALAR", "max" : [8786], "min" : [0]}, {"bufferView" : 5, "byteOffset" : 0, "componentType" : 5126, "count" : 8787, "type" : "VEC3", "max" : [0.33414900302886963, 0.08895424008369446, 0.9201774597167969], "min" : [-0.33414947986602783, -0.1686505377292633, 2.384185791015625E-07], "name" : "POSITION"}, {"bufferView" : 5, "byteOffset" : 12, "componentType" : 5126, "count" : 8787, "type" : "VEC3", "max" : [0.999964714050293, 0.9998757839202881, 0.9876992702484131], "min" : [-0.9998757839202881, -0.9994858503341675, -1.0000033378601074], "name" : "NORMAL"}, {"bufferView" : 5, "byteOffset" : 24, "componentType" : 5126, "count" : 8787, "type" : "VEC2", "max" : [0.9933363199234009, 0.9940098524093628], "min" : [0.008842949755489826, 0.007498264312744141], "name" : "TEXCOORD_0"}], "asset" : {"generator" : "Aspose.3D 24.4.1", "version" : "2.0"}, "buffers" : [{"uri" : "data:application/octet-stream;base64,", "byteLength" : 551908}], "bufferViews" : [{"buffer" : 0, "byteOffset" : 0, "byteLength" : 35020, "target" : 34963}, {"buffer" : 0, "byteOffset" : 35024, "byteLength" : 15168, "byteStride" : 32, "target" : 34962}, {"buffer" : 0, "byteOffset" : 50196, "byteLength" : 1920, "byteStride" : 32, "target" : 34962}, {"buffer" : 0, "byteOffset" : 52120, "byteLength" : 18624, "byteStride" : 32, "target" : 34962}, {"buffer" : 0, "byteOffset" : 70748, "byteLength" : 199968, "byteStride" : 32, "target" : 34962}, {"buffer" : 0, "byteOffset" : 270720, "byteLength" : 281184, "byteStride" : 32, "target" : 34962}], "images" : [{"uri" : "data:image/png;base64,"}, {"uri" : "data:image/png;base64,"}, {"uri" : "data:image/png;base64,"}, {"uri" : "data:image/png;base64,"}], "materials" : [{"name" : "lambert2", "pbrMetallicRoughness" : {"baseColorFactor" : [1, 1, 1, 1], "baseColorTexture" : {"index" : 0, "texCoord" : 0}, "metallicFactor" : 1, "roughnessFactor" : 1}, "emissiveFactor" : [0, 0, 0], "alphaMode" : "OPAQUE", "doubleSided" : false}, {"name" : "lambert1", "pbrMetallicRoughness" : {"baseColorFactor" : [0.5, 0.5, 0.5, 1], "metallicFactor" : 1, "roughnessFactor" : 1}, "emissiveFactor" : [0, 0, 0], "alphaMode" : "OPAQUE", "doubleSided" : false}, {"name" : "lambert5", "pbrMetallicRoughness" : {"baseColorFactor" : [1, 1, 1, 1], "baseColorTexture" : {"index" : 1, "texCoord" : 0}, "metallicFactor" : 1, "roughnessFactor" : 1}, "emissiveFactor" : [0, 0, 0], "alphaMode" : "OPAQUE", "doubleSided" : false}, {"name" : "lambert3", "pbrMetallicRoughness" : {"baseColorFactor" : [1, 1, 1, 1], "baseColorTexture" : {"index" : 2, "texCoord" : 0}, "metallicFactor" : 1, "roughnessFactor" : 1}, "emissiveFactor" : [0, 0, 0], "alphaMode" : "OPAQUE", "doubleSided" : false}, {"name" : "lambert4", "pbrMetallicRoughness" : {"baseColorFactor" : [1, 1, 1, 1], "baseColorTexture" : {"index" : 3, "texCoord" : 0}, "metallicFactor" : 1, "roughnessFactor" : 1}, "emissiveFactor" : [0, 0, 0], "alphaMode" : "OPAQUE", "doubleSided" : false}], "meshes" : [{"primitives" : [{"attributes" : {"POSITION" : 1, "NORMAL" : 2, "TEXCOORD_0" : 3}, "indices" : 0, "material" : 0, "mode" : 4}], "name" : ""}, {"primitives" : [{"attributes" : {"POSITION" : 5, "NORMAL" : 6, "TEXCOORD_0" : 7}, "indices" : 4, "material" : 1, "mode" : 4}], "name" : ""}, {"primitives" : [{"attributes" : {"POSITION" : 9, "NORMAL" : 10, "TEXCOORD_0" : 11}, "indices" : 8, "material" : 2, "mode" : 4}], "name" : ""}, {"primitives" : [{"attributes" : {"POSITION" : 13, "NORMAL" : 14, "TEXCOORD_0" : 15}, "indices" : 12, "material" : 3, "mode" : 4}], "name" : ""}, {"primitives" : [{"attributes" : {"POSITION" : 17, "NORMAL" : 18, "TEXCOORD_0" : 19}, "indices" : 16, "material" : 4, "mode" : 4}], "name" : ""}], "nodes" : [{"matrix" : [1, 0, 0, 0, 0, 6.123233995736766E-17, -1, 0, 0, 1, 6.123233995736766E-17, 0, 0, 0, 0, 1], "mesh" : 0, "name" : "Shiroko_Original_Body:Shiroko_Original_Body_0"}, {"matrix" : [1, 0, 0, 0, 0, 6.123233995736766E-17, -1, 0, 0, 1, 6.123233995736766E-17, 0, 0, 0, 0, 1], "mesh" : 1, "name" : "Shiroko_Original_Body:Shiroko_Original_Body_1"}, {"matrix" : [1, 0, 0, 0, 0, 6.123233995736766E-17, -1, 0, 0, 1, 6.123233995736766E-17, 0, 0, 0, 0, 1], "mesh" : 2, "name" : "Shiroko_Original_Body:Shiroko_Original_Body_2"}, {"matrix" : [1, 0, 0, 0, 0, 6.123233995736766E-17, -1, 0, 0, 1, 6.123233995736766E-17, 0, 0, 0, 0, 1], "mesh" : 3, "name" : "Shiroko_Original_Body:Shiroko_Original_Body_3"}, {"matrix" : [1, 0, 0, 0, 0, 6.123233995736766E-17, -1, 0, 0, 1, 6.123233995736766E-17, 0, 0, 0, 0, 1], "mesh" : 4, "name" : "Shiroko_Original_Body:Shiroko_Original_Body_4"}], "samplers" : [{"magFilter" : 9729, "minFilter" : 9729, "wrapS" : 10497, "wrapT" : 10497}, {"magFilter" : 9729, "minFilter" : 9729, "wrapS" : 10497, "wrapT" : 10497}, {"magFilter" : 9729, "minFilter" : 9729, "wrapS" : 10497, "wrapT" : 10497}, {"magFilter" : 9729, "minFilter" : 9729, "wrapS" : 10497, "wrapT" : 10497}], "scene" : 0, "scenes" : [{"nodes" : [0, 1, 2, 3, 4]}], "textures" : [{"sampler" : 0, "source" : 0, "name" : "file1"}, {"sampler" : 1, "source" : 1, "name" : "file4"}, {"sampler" : 2, "source" : 2, "name" : "file2"}, {"sampler" : 3, "source" : 3, "name" : "file3"}]}