{"accessors" : [{"bufferView" : 0, "byteOffset" : 0, "componentType" : 5123, "count" : 7815, "type" : "SCALAR", "max" : [7814], "min" : [0]}, {"bufferView" : 1, "byteOffset" : 0, "componentType" : 5126, "count" : 7815, "type" : "VEC3", "max" : [0.029903367161750793, 0.2993614375591278, 0.06076258420944214], "min" : [-0.024550944566726685, -0.27130773663520813, -0.15973342955112457], "name" : "POSITION"}, {"bufferView" : 1, "byteOffset" : 12, "componentType" : 5126, "count" : 7815, "type" : "VEC3", "max" : [1.0000039339065552, 1.000003457069397, 1.0000039339065552], "min" : [-1.0000039339065552, -1.000003457069397, -1.0000039339065552], "name" : "NORMAL"}, {"bufferView" : 1, "byteOffset" : 24, "componentType" : 5126, "count" : 7815, "type" : "VEC2", "max" : [0.9930716753005981, 0.9969883561134338], "min" : [0.00795244425535202, 0.0067923665046691895], "name" : "TEXCOORD_0"}], "asset" : {"generator" : "Aspose.3D 24.4.1", "version" : "2.0"}, "buffers" : [{"uri" : "data:application/octet-stream;base64,", "byteLength" : 265720}], "bufferViews" : [{"buffer" : 0, "byteOffset" : 0, "byteLength" : 15632, "target" : 34963}, {"buffer" : 0, "byteOffset" : 15636, "byteLength" : 250080, "byteStride" : 32, "target" : 34962}], "images" : [{"uri" : "data:image/png;base64,"}], "materials" : [{"name" : "lambert2", "pbrMetallicRoughness" : {"baseColorFactor" : [1, 1, 1, 1], "baseColorTexture" : {"index" : 0, "texCoord" : 0}, "metallicFactor" : 1, "roughnessFactor" : 1}, "emissiveFactor" : [0, 0, 0], "alphaMode" : "OPAQUE", "doubleSided" : false}], "meshes" : [{"primitives" : [{"attributes" : {"POSITION" : 1, "NORMAL" : 2, "TEXCOORD_0" : 3}, "indices" : 0, "material" : 0, "mode" : 4}], "name" : ""}], "nodes" : [{"matrix" : [6.123233995736766E-17, -2.752931534971971E-31, -1, 0, -1, -4.784541604029134E-14, -6.123233995736766E-17, 0, -4.784541604029134E-14, 1, -3.204979933878008E-30, 0, 0, 0, 0, 1], "mesh" : 0, "name" : "Shiroko_Original_Weapon_Shiroko_Original_Weapon_0"}], "samplers" : [{"magFilter" : 9729, "minFilter" : 9729, "wrapS" : 10497, "wrapT" : 10497}], "scene" : 0, "scenes" : [{"nodes" : [0]}], "textures" : [{"sampler" : 0, "source" : 0, "name" : "file1"}]}