{"accessors" : [{"bufferView" : 0, "byteOffset" : 0, "componentType" : 5123, "count" : 672, "type" : "SCALAR", "max" : [671], "min" : [0]}, {"bufferView" : 1, "byteOffset" : 0, "componentType" : 5126, "count" : 672, "type" : "VEC3", "max" : [0.10548150539398193, -0.04674439877271652, 0.7861185073852539], "min" : [-0.10548150539398193, -0.11701478809118271, 0.6495649814605713], "name" : "POSITION"}, {"bufferView" : 1, "byteOffset" : 12, "componentType" : 5126, "count" : 672, "type" : "VEC3", "max" : [0.9477795958518982, 0.9807320237159729, 0.9283738732337952], "min" : [-0.9477795958518982, -0.9999690055847168, -0.9594159722328186], "name" : "NORMAL"}, {"bufferView" : 1, "byteOffset" : 24, "componentType" : 5126, "count" : 672, "type" : "VEC2", "max" : [0.9715033769607544, 0.9856524467468262], "min" : [0.008646873757243156, 0.02081674337387085], "name" : "TEXCOORD_0"}, {"bufferView" : 0, "byteOffset" : 1344, "componentType" : 5123, "count" : 36, "type" : "SCALAR", "max" : [35], "min" : [0]}, {"bufferView" : 2, "byteOffset" : 0, "componentType" : 5126, "count" : 36, "type" : "VEC3", "max" : [0.08741723746061325, -0.09328553825616837, 0.8137378692626953], "min" : [-0.08741723746061325, -0.11144454777240753, 0.8028919100761414], "name" : "POSITION"}, {"bufferView" : 2, "byteOffset" : 12, "componentType" : 5126, "count" : 36, "type" : "VEC3", "max" : [0.4185056686401367, -0.9072229266166687, -0.03937983140349388], "min" : [-0.4185056686401367, -0.9767863154411316, -0.15444150567054749], "name" : "NORMAL"}, {"bufferView" : 2, "byteOffset" : 24, "componentType" : 5126, "count" : 36, "type" : "VEC2", "max" : [0.9726269245147705, 0.12899357080459595], "min" : [0.5940900444984436, 0.06058269739151001], "name" : "TEXCOORD_0"}, {"bufferView" : 0, "byteOffset" : 1416, "componentType" : 5123, "count" : 2058, "type" : "SCALAR", "max" : [2057], "min" : [0]}, {"bufferView" : 3, "byteOffset" : 0, "componentType" : 5126, "count" : 2058, "type" : "VEC3", "max" : [0.134486123919487, 0.05409269779920578, 0.945816695690155], "min" : [-0.134486123919487, -0.11704862117767334, 0.6281602382659912], "name" : "POSITION"}, {"bufferView" : 3, "byteOffset" : 12, "componentType" : 5126, "count" : 2058, "type" : "VEC3", "max" : [0.9989610910415649, 0.9879648089408875, 0.9530313014984131], "min" : [-0.9989610910415649, -0.9988378882408142, -0.9954898953437805], "name" : "NORMAL"}, {"bufferView" : 3, "byteOffset" : 24, "componentType" : 5126, "count" : 2058, "type" : "VEC2", "max" : [0.9785273671150208, 0.9852844476699829], "min" : [0.02191857621073723, 0.016931593418121338], "name" : "TEXCOORD_0"}, {"bufferView" : 0, "byteOffset" : 5532, "componentType" : 5123, "count" : 7803, "type" : "SCALAR", "max" : [7802], "min" : [0]}, {"bufferView" : 4, "byteOffset" : 0, "componentType" : 5126, "count" : 7803, "type" : "VEC3", "max" : [0.2817968428134918, 0.2964359223842621, 0.9822965860366821], "min" : [-0.2817968428134918, -0.16943809390068054, 0.387503057718277], "name" : "POSITION"}, {"bufferView" : 4, "byteOffset" : 12, "componentType" : 5126, "count" : 7803, "type" : "VEC3", "max" : [0.999269425868988, 0.9998264908790588, 0.9999135732650757], "min" : [-0.9991174340248108, -0.9971051812171936, -0.9997480511665344], "name" : "NORMAL"}, {"bufferView" : 4, "byteOffset" : 24, "componentType" : 5126, "count" : 7803, "type" : "VEC2", "max" : [0.9954931735992432, 0.9885426759719849], "min" : [0.011389505118131638, 0.006398379802703857], "name" : "TEXCOORD_0"}, {"bufferView" : 0, "byteOffset" : 21140, "componentType" : 5123, "count" : 10698, "type" : "SCALAR", "max" : [10697], "min" : [0]}, {"bufferView" : 5, "byteOffset" : 0, "componentType" : 5126, "count" : 10698, "type" : "VEC3", "max" : [0.33414900302886963, 0.21348735690116882, 0.9810084104537964], "min" : [-0.33414900302886963, -0.18896484375, -9.155273232863692E-07], "name" : "POSITION"}, {"bufferView" : 5, "byteOffset" : 12, "componentType" : 5126, "count" : 10698, "type" : "VEC3", "max" : [0.9997618794441223, 0.9999687671661377, 1.0000044107437134], "min" : [-0.9997618794441223, -0.9999606609344482, -1.0000044107437134], "name" : "NORMAL"}, {"bufferView" : 5, "byteOffset" : 24, "componentType" : 5126, "count" : 10698, "type" : "VEC2", "max" : [0.9963710904121399, 0.9933463335037231], "min" : [0.004261009860783815, 0.010393798351287842], "name" : "TEXCOORD_0"}], "asset" : {"generator" : "Aspose.3D 24.4.1", "version" : "2.0"}, "buffers" : [{"uri" : "data:application/octet-stream;base64,", "byteLength" : 723104}], "bufferViews" : [{"buffer" : 0, "byteOffset" : 0, "byteLength" : 42536, "target" : 34963}, {"buffer" : 0, "byteOffset" : 42540, "byteLength" : 21504, "byteStride" : 32, "target" : 34962}, {"buffer" : 0, "byteOffset" : 64048, "byteLength" : 1152, "byteStride" : 32, "target" : 34962}, {"buffer" : 0, "byteOffset" : 65204, "byteLength" : 65856, "byteStride" : 32, "target" : 34962}, {"buffer" : 0, "byteOffset" : 131064, "byteLength" : 249696, "byteStride" : 32, "target" : 34962}, {"buffer" : 0, "byteOffset" : 380764, "byteLength" : 342336, "byteStride" : 32, "target" : 34962}], "images" : [{"uri" : "data:image/png;base64,"}, {"uri" : "data:image/png;base64,"}, {"uri" : "data:image/png;base64,"}, {"uri" : "data:image/png;base64,"}], "materials" : [{"name" : "lambert5", "pbrMetallicRoughness" : {"baseColorFactor" : [1, 1, 1, 1], "baseColorTexture" : {"index" : 0, "texCoord" : 0}, "metallicFactor" : 1, "roughnessFactor" : 1}, "emissiveFactor" : [0, 0, 0], "alphaMode" : "OPAQUE", "doubleSided" : false}, {"name" : "lambert2", "pbrMetallicRoughness" : {"baseColorFactor" : [1, 1, 1, 1], "baseColorTexture" : {"index" : 1, "texCoord" : 0}, "metallicFactor" : 1, "roughnessFactor" : 1}, "emissiveFactor" : [0, 0, 0], "alphaMode" : "OPAQUE", "doubleSided" : false}, {"name" : "lambert4", "pbrMetallicRoughness" : {"baseColorFactor" : [1, 1, 1, 1], "baseColorTexture" : {"index" : 2, "texCoord" : 0}, "metallicFactor" : 1, "roughnessFactor" : 1}, "emissiveFactor" : [0, 0, 0], "alphaMode" : "OPAQUE", "doubleSided" : false}, {"name" : "lambert2", "pbrMetallicRoughness" : {"baseColorFactor" : [1, 1, 1, 1], "baseColorTexture" : {"index" : 1, "texCoord" : 0}, "metallicFactor" : 1, "roughnessFactor" : 1}, "emissiveFactor" : [0, 0, 0], "alphaMode" : "OPAQUE", "doubleSided" : false}, {"name" : "lambert3", "pbrMetallicRoughness" : {"baseColorFactor" : [1, 1, 1, 1], "baseColorTexture" : {"index" : 3, "texCoord" : 0}, "metallicFactor" : 1, "roughnessFactor" : 1}, "emissiveFactor" : [0, 0, 0], "alphaMode" : "OPAQUE", "doubleSided" : false}], "meshes" : [{"primitives" : [{"attributes" : {"POSITION" : 1, "NORMAL" : 2, "TEXCOORD_0" : 3}, "indices" : 0, "material" : 0, "mode" : 4}], "name" : ""}, {"primitives" : [{"attributes" : {"POSITION" : 5, "NORMAL" : 6, "TEXCOORD_0" : 7}, "indices" : 4, "material" : 1, "mode" : 4}], "name" : ""}, {"primitives" : [{"attributes" : {"POSITION" : 9, "NORMAL" : 10, "TEXCOORD_0" : 11}, "indices" : 8, "material" : 2, "mode" : 4}], "name" : ""}, {"primitives" : [{"attributes" : {"POSITION" : 13, "NORMAL" : 14, "TEXCOORD_0" : 15}, "indices" : 12, "material" : 3, "mode" : 4}], "name" : ""}, {"primitives" : [{"attributes" : {"POSITION" : 17, "NORMAL" : 18, "TEXCOORD_0" : 19}, "indices" : 16, "material" : 4, "mode" : 4}], "name" : ""}], "nodes" : [{"mesh" : 0, "name" : "OL_Yuuka_Original_Body_OL_Yuuka_Original_Body_4"}, {"mesh" : 1, "name" : "OL_Yuuka_Original_Body_OL_Yuuka_Original_Body_3"}, {"mesh" : 2, "name" : "OL_Yuuka_Original_Body_OL_Yuuka_Original_Body_1"}, {"mesh" : 3, "name" : "OL_Yuuka_Original_Body_OL_Yuuka_Original_Body_2"}, {"mesh" : 4, "name" : "OL_Yuuka_Original_Body_OL_Yuuka_Original_Body_0"}, {"children" : [0, 1, 2, 3, 4], "matrix" : [1, 0, 0, 0, 0, 6.123233995736766E-17, -1, 0, 0, 1, 6.123233995736766E-17, 0, 0, 0, 0, 1], "name" : "group1"}], "samplers" : [{"magFilter" : 9729, "minFilter" : 9729, "wrapS" : 10497, "wrapT" : 10497}, {"magFilter" : 9729, "minFilter" : 9729, "wrapS" : 10497, "wrapT" : 10497}, {"magFilter" : 9729, "minFilter" : 9729, "wrapS" : 10497, "wrapT" : 10497}, {"magFilter" : 9729, "minFilter" : 9729, "wrapS" : 10497, "wrapT" : 10497}], "scene" : 0, "scenes" : [{"nodes" : [5]}], "textures" : [{"sampler" : 0, "source" : 0, "name" : "file4"}, {"sampler" : 1, "source" : 1, "name" : "file1"}, {"sampler" : 2, "source" : 2, "name" : "file3"}, {"sampler" : 3, "source" : 3, "name" : "file2"}]}